<svg width="105" height="64" viewBox="0 0 105 64" fill="none" xmlns="http://www.w3.org/2000/svg">
<path d="M99.2125 31.1812L46.9312 4.96871C46.7187 4.86246 46.475 4.83746 46.2437 4.89371C45.7125 5.02496 45.3812 5.56246 45.5125 6.09996L50.9 28.1125C50.9812 28.4437 51.225 28.7125 51.55 28.8187L60.7812 31.9875L51.5562 35.1562C51.2312 35.2687 50.9875 35.5312 50.9125 35.8625L45.5125 57.9062C45.4562 58.1375 45.4812 58.3812 45.5875 58.5875C45.8312 59.0812 46.4312 59.2812 46.9312 59.0375L99.2125 32.975C99.4062 32.8812 99.5625 32.7187 99.6625 32.5312C99.9062 32.0312 99.7062 31.4312 99.2125 31.1812ZM51.675 51.6437L54.8187 38.7937L73.2687 32.4625C73.4125 32.4125 73.5312 32.3 73.5812 32.15C73.6687 31.8875 73.5312 31.6062 73.2687 31.5125L54.8187 25.1875L51.6875 12.3875L90.9375 32.0687L51.675 51.6437Z" fill="#FFEB7D"/>
<path d="M16 32H41" stroke="#FFEB7D" stroke-width="3" stroke-linecap="round"/>
<path d="M7 19H32" stroke="#FFEB7D" stroke-width="3" stroke-linecap="round"/>
<path d="M12 46H37" stroke="#FFEB7D" stroke-width="3" stroke-linecap="round"/>
</svg>
