<svg width="56" height="64" viewBox="0 0 56 64" fill="none" xmlns="http://www.w3.org/2000/svg">
<path d="M55.4831 17.4093C55.287 12.5773 53.2211 8.10242 49.6636 4.81803C47.9829 3.27038 46.0711 2.06587 43.9772 1.23952C41.8834 0.420177 39.6705 0 37.3945 0C37.1494 0 36.8973 0.00700295 36.6522 0.0140059C31.8202 0.210089 27.3523 2.27596 24.0609 5.84046L3.68933 27.8227C3.03806 28.5301 3.07307 29.6296 3.77337 30.2878L5.18796 31.6183C5.89526 32.2836 7.00873 32.2486 7.67401 31.5343L28.0596 9.53802C30.3846 7.01696 33.795 5.56735 37.4086 5.56735C40.6579 5.56735 43.7042 6.72284 45.9732 8.82372C48.4592 11.1207 49.9088 14.244 50.0419 17.6334C50.1749 21.0159 48.9985 24.2372 46.7155 26.7093L19.0259 56.2687C17.6393 57.7674 15.6154 58.6287 13.4655 58.6287C11.5327 58.6287 9.71895 57.9424 8.36738 56.6889C6.88975 55.3233 6.03539 53.4676 5.94435 51.4507C5.86032 49.4409 6.56061 47.522 7.91218 46.0584C7.91218 46.0584 33.683 18.5578 33.7251 18.5228C35.98 16.1838 39.5165 19.5873 37.2616 21.9263C33.431 25.8969 23.5919 36.5204 18.7738 41.7376C18.1225 42.445 18.1575 43.5444 18.8578 44.2026L20.2724 45.5332C20.9798 46.1985 22.0932 46.1635 22.7584 45.4492L41.3093 25.4487C44.2434 22.2694 44.0474 17.2903 40.8611 14.3491C39.4115 13.0115 37.5137 12.2692 35.5318 12.2692C34.4604 12.2692 33.4239 12.4793 32.4435 12.8994C31.4351 13.3266 30.5387 13.9569 29.7963 14.7692L3.93444 42.3469C-0.91861 47.6061 -0.582468 55.8346 4.67675 60.6946C6.98772 62.8305 10.104 64 13.4514 64C17.17 64 20.6505 62.5364 23.0035 59.9873L50.6931 30.4278C53.9705 26.8703 55.6723 22.2484 55.4831 17.4093Z" fill="#E5E5E5" fill-opacity="0.5"/>
</svg>
