<svg width="75" height="75" viewBox="0 0 75 75" fill="none" xmlns="http://www.w3.org/2000/svg">
<g opacity="0.5">
<path d="M37.4996 75C27.483 75 18.0659 71.0993 10.983 64.0166C10.1526 63.1862 10.1526 61.8396 10.983 61.0088C11.8134 60.1786 13.16 60.1786 13.9908 61.0088C20.2701 67.2882 28.6191 70.7465 37.4997 70.7465C46.3803 70.7465 54.7292 67.2882 61.0087 61.0088C67.2882 54.7295 70.7463 46.3805 70.7463 37.5C70.7463 28.6195 67.2881 20.2705 61.0086 13.991C54.7291 7.71152 46.3801 4.25332 37.4996 4.25332C28.6191 4.25332 20.2701 7.71167 13.9908 13.991C5.60364 22.3781 2.31185 34.7112 5.39944 46.1777C5.70486 47.3118 5.03309 48.4787 3.89886 48.7844C2.76536 49.0896 1.59788 48.4181 1.29246 47.2838C-0.3924 41.0271 -0.429754 34.4026 1.18465 28.1259C2.84798 21.6583 6.23631 15.7304 10.9833 10.9835C18.0658 3.90073 27.483 0 37.4996 0C47.5162 0 56.9332 3.90073 64.0162 10.9834C71.099 18.0662 74.9996 27.4833 74.9996 37.5C74.9996 47.5167 71.0988 56.9338 64.0162 64.0166C56.9332 71.0993 47.5162 75 37.4996 75Z" fill="white"/>
<path d="M37.4993 12.0808C23.4609 12.0808 12.0802 23.4612 12.0802 37.4999C12.0802 51.5387 23.4609 62.9191 37.4993 62.9191C51.5378 62.9191 62.9185 51.5387 62.9185 37.4999C62.9185 23.4612 51.5378 12.0808 37.4993 12.0808ZM24.7394 30.8365C24.7394 27.9785 26.3103 25.6617 28.2484 25.6617C30.1866 25.6617 31.7574 27.9786 31.7574 30.8365C31.7574 33.6946 30.1866 36.0114 28.2484 36.0114C26.3103 36.0114 24.7394 33.6943 24.7394 30.8365ZM37.4993 52.5705C32.8011 52.5705 28.8204 49.5011 27.4517 45.2582H47.5471C46.1781 49.5008 42.1974 52.5705 37.4993 52.5705ZM46.7503 36.0112C44.8123 36.0112 43.2412 33.6943 43.2412 30.8364C43.2412 27.9783 44.8121 25.6615 46.7503 25.6615C48.6884 25.6615 50.2593 27.9785 50.2593 30.8364C50.2593 33.6943 48.6881 36.0112 46.7503 36.0112Z" fill="white"/>
<path d="M37.4994 65.0455C22.3106 65.0455 9.95361 52.6888 9.95361 37.5C9.95361 22.3112 22.3106 9.95447 37.4994 9.95447C52.6882 9.95447 65.0452 22.3112 65.0452 37.5C65.0452 52.6888 52.6882 65.0455 37.4994 65.0455ZM37.4994 14.2078C24.656 14.2078 14.2069 24.6567 14.2069 37.5C14.2069 50.3433 24.6558 60.7922 37.4994 60.7922C50.343 60.7922 60.7919 50.3433 60.7919 37.5C60.7919 24.6567 50.3427 14.2078 37.4994 14.2078ZM37.4994 54.6972C31.9746 54.6972 27.1232 51.1664 25.4279 45.9114C25.2193 45.2642 25.3324 44.5563 25.7326 44.0068C26.1328 43.4571 26.7719 43.1319 27.4518 43.1319H47.5469C48.2268 43.1319 48.8659 43.4571 49.2661 44.0068C49.6663 44.5563 49.7796 45.2642 49.5708 45.9114C47.8753 51.1665 43.0242 54.6972 37.4994 54.6972ZM30.9938 47.3849C32.5594 49.2852 34.9189 50.4439 37.4994 50.4439C40.0799 50.4439 42.4395 49.2854 44.0051 47.3849H30.9938ZM46.7503 38.1379C43.5901 38.1379 41.1147 34.9306 41.1147 30.8363C41.1147 26.742 43.5901 23.5347 46.7503 23.5347C49.9106 23.5347 52.386 26.742 52.386 30.8363C52.386 34.9308 49.9106 38.1379 46.7503 38.1379ZM46.7503 27.7882C46.2757 27.7882 45.368 28.9753 45.368 30.8364C45.368 32.6976 46.2756 33.8847 46.7503 33.8847C47.2251 33.8847 48.1327 32.6976 48.1327 30.8364C48.1327 28.9753 47.2251 27.7882 46.7503 27.7882ZM28.2485 38.1379C25.0882 38.1379 22.6128 34.9306 22.6128 30.8363C22.6128 26.742 25.0882 23.5347 28.2485 23.5347C31.4087 23.5347 33.8842 26.742 33.8842 30.8363C33.8842 34.9308 31.4087 38.1379 28.2485 38.1379ZM28.2485 27.7882C27.7739 27.7882 26.8661 28.9753 26.8661 30.8364C26.8661 32.6976 27.7737 33.8847 28.2485 33.8847C28.7232 33.8847 29.6309 32.6976 29.6309 30.8364C29.6309 28.9753 28.7231 27.7882 28.2485 27.7882Z" fill="#A28ED7"/>
</g>
</svg>
