<?xml version="1.0" encoding="utf-8"?>
<!-- Generator: Adobe Illustrator 24.1.1, SVG Export Plug-In . SVG Version: 6.00 Build 0)  -->
<svg version="1.1" id="Слой_1" xmlns="http://www.w3.org/2000/svg" xmlns:xlink="http://www.w3.org/1999/xlink" x="0px" y="0px"
	 viewBox="0 0 708.7 708.7" style="enable-background:new 0 0 708.7 708.7;" xml:space="preserve">
<g>
	<path d="M353.7,202.2c-6.8-4.9-15.9-1.3-20,0.3c-13.9,5.5-20,18.8-21.8,23.3c12.6,4.2,22.5,2.9,27.4,1.8
		c5.9-1.3,18.6-4.1,20.3-12.4C360.6,210.3,357.6,204.9,353.7,202.2z"/>
	<rect x="257.1" y="14.3" width="261" height="25.1"/>
	<path d="M518,260.2l4-5.5l-1.2-6.7c-4.3-24.6-13-47.7-25.7-68.7c-11.1-18.3-26.2-43.3-56.5-58.7c-12.9-6.5-26.9-10.5-41.7-11.8
		c-11.7-1-24-0.4-36.4,1.9c-21.5,4-36.7,11.7-38.4,12.6l0,0c-13.3,7-25.1,16.1-35.2,27.3c-8.1,9-15.1,19.2-20.8,30.5
		c-6.8,13.5-10.4,25.6-12.1,33.4c-3.8,2.9-7.7,5.7-11.5,8.6c-5.5,4.1-11,8.3-16.6,12.4l-18.9,14.2l62,38.7
		c-4.9,5.8-10,12.7-15.1,20.7c-15.6,25-24.2,52.2-25.5,80.9c-0.8,17.6,1.3,35.2,6.2,52.2c4,13.8,9.8,27.3,17.3,40
		c12.4,21,26.2,34.7,31.6,39.6l12.2,11.1l52.5-59.2l-24.3-21.5l-29.8,33.6c-14.3-17.1-35.2-50.1-33.2-94.4
		c2.3-52,34.7-85.3,44.5-94.3l15.9-14.4l-56.9-35.5c4.7-3.5,9.4-7,14.1-10.6l5.2-3.9l1-6.5c0.4-2.5,2.8-15.5,10.4-30.6
		c9.8-19.4,24-34.1,42.1-43.7c0.7-0.4,12.4-6.3,29.3-9.5c21.4-4,40.7-1.6,57.6,6.9c22,11.2,33.4,30,43.4,46.6
		c9.5,15.6,16.3,32.7,20.2,50.9c-2.5,3.5-5,7-7.5,10.5c-3.9,5.4-7.7,10.8-11.6,16.1l-5.4,7.5l3.8,8.5c13.3,30.2,19.6,61.5,18.7,93.2
		c-1.6,53.5-23.7,95.3-44,123.1c-5.8-5.1-11.5-10.1-17.3-15.2l-21.4,24.4c6,5.3,12.1,10.6,18.1,15.9c-3,3.2-5.6,6-7.6,8.2l0,0
		c-4,4.2-8,8.1-12.1,11.8c-5.4-6.9-10.8-13.8-16.2-20.7l-25.5,20c5.5,7,11,14,16.4,21c-22.8,16-47.1,27.5-75.2,40.8
		c-40,18.9-81.9,33.6-124.8,43.8c-12,2.8-24,5.3-35.6,7.4l5.6,31.9c12.2-2.2,24.8-4.8,37.4-7.8c45-10.7,89.2-26.1,131.2-46
		c29.2-13.8,55.8-26.4,81.3-44.5c6.8,8.7,13.6,17.3,20.4,26l25.5-20c-6.9-8.8-13.7-17.5-20.6-26.3c5.2-4.7,10.3-9.6,15.5-15l0,0
		c2.3-2.4,5.2-5.5,8.6-9.1c9.1,8,18.2,16,27.4,24l21.4-24.4c-9.4-8.2-18.8-16.5-28.1-24.7c5.6-7.5,11.4-16.1,17-25.7
		c22-37.4,33.7-77.1,35-118c0.6-21.2-1.6-42.7-6.6-63.7c-2.8-11.8-6.6-23.5-11.1-35c2.1-2.9,4.2-5.8,6.3-8.8
		C510.3,270.9,514.1,265.5,518,260.2z"/>
	<path d="M295.6,589.6l-15.9-28.3c-19.1,10.8-39.4,19.9-60.2,27.1c-18.6,6.5-37.9,11.5-57.4,15l5.7,31.9
		c21.2-3.8,42.1-9.2,62.3-16.3C252.8,611.2,274.9,601.2,295.6,589.6z"/>
</g>
</svg>
